<svg xmlns="http://www.w3.org/2000/svg" xmlns:xlink="http://www.w3.org/1999/xlink" width="500" zoomAndPan="magnify" viewBox="0 0 375 374.999991" height="500" preserveAspectRatio="xMidYMid meet" version="1.0"><defs><g/><clipPath id="747e60b1bc"><path d="M 89.21875 171 L 170 171 L 170 292.394531 L 89.21875 292.394531 Z M 89.21875 171 " clip-rule="nonzero"/></clipPath><clipPath id="86e30c9d2f"><path d="M 205 171 L 285.71875 171 L 285.71875 292.394531 L 205 292.394531 Z M 205 171 " clip-rule="nonzero"/></clipPath></defs><g clip-path="url(#747e60b1bc)"><path fill="#ffffff" d="M 89.230469 292.457031 C 101.523438 288.015625 131.230469 280.15625 169.777344 289.128906 C 157.59375 282.300781 136.359375 276.082031 101.597656 281.742188 L 96.65625 282.546875 L 96.65625 171.175781 C 94.660156 171.160156 92.015625 171.21875 89.230469 171.34375 L 89.230469 292.457031 " fill-opacity="1" fill-rule="nonzero"/></g><path fill="#ffffff" d="M 183.242188 287.882812 L 183.242188 180.492188 C 179.746094 175.871094 159.804688 153.738281 105.171875 161.578125 L 105.171875 272.601562 C 113.351562 271.476562 120.828125 270.980469 127.625 270.980469 C 157.394531 270.980469 174.441406 280.4375 183.242188 287.882812 " fill-opacity="1" fill-rule="nonzero"/><g clip-path="url(#86e30c9d2f)"><path fill="#ffffff" d="M 285.765625 292.457031 L 285.765625 171.34375 C 282.976562 171.222656 280.332031 171.160156 278.335938 171.175781 L 278.335938 282.546875 L 273.394531 281.742188 C 238.574219 276.0625 217.339844 282.296875 205.171875 289.136719 C 243.730469 280.148438 273.464844 288.015625 285.765625 292.457031 " fill-opacity="1" fill-rule="nonzero"/></g><path fill="#ffffff" d="M 269.820312 272.601562 L 269.820312 161.578125 C 215.164062 153.710938 195.296875 175.820312 191.757812 180.496094 L 191.757812 287.882812 C 202.570312 278.742188 225.847656 266.574219 269.820312 272.601562 " fill-opacity="1" fill-rule="nonzero"/><g fill="#ffffff" fill-opacity="1"><g transform="translate(38.485513, 134.142519)"><g><path d="M 5.546875 0 L 5.546875 -52.5 L 24 -52.5 C 27.695312 -52.5 30.757812 -51.910156 33.1875 -50.734375 C 35.613281 -49.554688 37.425781 -47.957031 38.625 -45.9375 C 39.820312 -43.914062 40.421875 -41.65625 40.421875 -39.15625 C 40.421875 -35.75 39.507812 -33.070312 37.6875 -31.125 C 35.863281 -29.175781 33.675781 -27.828125 31.125 -27.078125 C 33.070312 -26.722656 34.84375 -25.945312 36.4375 -24.75 C 38.039062 -23.550781 39.304688 -22.050781 40.234375 -20.25 C 41.160156 -18.445312 41.625 -16.472656 41.625 -14.328125 C 41.625 -11.671875 40.972656 -9.253906 39.671875 -7.078125 C 38.367188 -4.910156 36.441406 -3.1875 33.890625 -1.90625 C 31.347656 -0.632812 28.25 0 24.59375 0 Z M 11.84375 -29.546875 L 23.546875 -29.546875 C 26.898438 -29.546875 29.472656 -30.332031 31.265625 -31.90625 C 33.066406 -33.488281 33.96875 -35.675781 33.96875 -38.46875 C 33.96875 -41.125 33.082031 -43.25 31.3125 -44.84375 C 29.539062 -46.445312 26.878906 -47.25 23.328125 -47.25 L 11.84375 -47.25 Z M 11.84375 -5.25 L 23.921875 -5.25 C 27.523438 -5.25 30.300781 -6.085938 32.25 -7.765625 C 34.195312 -9.441406 35.171875 -11.78125 35.171875 -14.78125 C 35.171875 -17.726562 34.144531 -20.085938 32.09375 -21.859375 C 30.050781 -23.640625 27.28125 -24.53125 23.78125 -24.53125 L 11.84375 -24.53125 Z M 11.84375 -5.25 "/></g></g></g><g fill="#ffffff" fill-opacity="1"><g transform="translate(83.62847, 134.142519)"><g><path d="M 22.125 0.90625 C 18.625 0.90625 15.472656 0.101562 12.671875 -1.5 C 9.867188 -3.101562 7.65625 -5.363281 6.03125 -8.28125 C 4.40625 -11.207031 3.59375 -14.644531 3.59375 -18.59375 C 3.59375 -22.550781 4.414062 -25.988281 6.0625 -28.90625 C 7.71875 -31.832031 9.957031 -34.09375 12.78125 -35.6875 C 15.613281 -37.289062 18.78125 -38.09375 22.28125 -38.09375 C 25.78125 -38.09375 28.925781 -37.289062 31.71875 -35.6875 C 34.519531 -34.09375 36.734375 -31.832031 38.359375 -28.90625 C 39.984375 -25.988281 40.796875 -22.550781 40.796875 -18.59375 C 40.796875 -14.644531 39.96875 -11.207031 38.3125 -8.28125 C 36.664062 -5.363281 34.429688 -3.101562 31.609375 -1.5 C 28.785156 0.101562 25.625 0.90625 22.125 0.90625 Z M 22.125 -4.5 C 24.269531 -4.5 26.269531 -5.023438 28.125 -6.078125 C 29.976562 -7.128906 31.476562 -8.703125 32.625 -10.796875 C 33.769531 -12.898438 34.34375 -15.5 34.34375 -18.59375 C 34.34375 -21.695312 33.78125 -24.296875 32.65625 -26.390625 C 31.53125 -28.492188 30.039062 -30.070312 28.1875 -31.125 C 26.34375 -32.175781 24.375 -32.703125 22.28125 -32.703125 C 20.125 -32.703125 18.117188 -32.175781 16.265625 -31.125 C 14.421875 -30.070312 12.921875 -28.492188 11.765625 -26.390625 C 10.617188 -24.296875 10.046875 -21.695312 10.046875 -18.59375 C 10.046875 -15.5 10.617188 -12.898438 11.765625 -10.796875 C 12.921875 -8.703125 14.410156 -7.128906 16.234375 -6.078125 C 18.054688 -5.023438 20.019531 -4.5 22.125 -4.5 Z M 22.125 -4.5 "/></g></g></g><g fill="#ffffff" fill-opacity="1"><g transform="translate(128.021541, 134.142519)"><g><path d="M 22.125 0.90625 C 18.625 0.90625 15.472656 0.101562 12.671875 -1.5 C 9.867188 -3.101562 7.65625 -5.363281 6.03125 -8.28125 C 4.40625 -11.207031 3.59375 -14.644531 3.59375 -18.59375 C 3.59375 -22.550781 4.414062 -25.988281 6.0625 -28.90625 C 7.71875 -31.832031 9.957031 -34.09375 12.78125 -35.6875 C 15.613281 -37.289062 18.78125 -38.09375 22.28125 -38.09375 C 25.78125 -38.09375 28.925781 -37.289062 31.71875 -35.6875 C 34.519531 -34.09375 36.734375 -31.832031 38.359375 -28.90625 C 39.984375 -25.988281 40.796875 -22.550781 40.796875 -18.59375 C 40.796875 -14.644531 39.96875 -11.207031 38.3125 -8.28125 C 36.664062 -5.363281 34.429688 -3.101562 31.609375 -1.5 C 28.785156 0.101562 25.625 0.90625 22.125 0.90625 Z M 22.125 -4.5 C 24.269531 -4.5 26.269531 -5.023438 28.125 -6.078125 C 29.976562 -7.128906 31.476562 -8.703125 32.625 -10.796875 C 33.769531 -12.898438 34.34375 -15.5 34.34375 -18.59375 C 34.34375 -21.695312 33.78125 -24.296875 32.65625 -26.390625 C 31.53125 -28.492188 30.039062 -30.070312 28.1875 -31.125 C 26.34375 -32.175781 24.375 -32.703125 22.28125 -32.703125 C 20.125 -32.703125 18.117188 -32.175781 16.265625 -31.125 C 14.421875 -30.070312 12.921875 -28.492188 11.765625 -26.390625 C 10.617188 -24.296875 10.046875 -21.695312 10.046875 -18.59375 C 10.046875 -15.5 10.617188 -12.898438 11.765625 -10.796875 C 12.921875 -8.703125 14.410156 -7.128906 16.234375 -6.078125 C 18.054688 -5.023438 20.019531 -4.5 22.125 -4.5 Z M 22.125 -4.5 "/></g></g></g><g fill="#ffffff" fill-opacity="1"><g transform="translate(172.414612, 134.142519)"><g><path d="M 5.171875 0 L 5.171875 -54 L 11.46875 -54 L 11.46875 -21.53125 L 26.703125 -37.203125 L 34.421875 -37.203125 L 17.921875 -20.40625 L 36.53125 0 L 28.5 0 L 11.46875 -19.28125 L 11.46875 0 Z M 5.171875 0 "/></g></g></g><g fill="#ffffff" fill-opacity="1"><g transform="translate(210.212068, 134.142519)"><g><path d="M 5.09375 0 L 5.09375 -52.5 L 14.703125 -52.5 L 14.703125 0 Z M 5.09375 0 "/></g></g></g><g fill="#ffffff" fill-opacity="1"><g transform="translate(230.008984, 134.142519)"><g><path d="M 5.09375 0 L 5.09375 -52.5 L 14.703125 -52.5 L 39.375 -15.53125 L 39.375 -52.5 L 48.96875 -52.5 L 48.96875 0 L 39.375 0 L 14.703125 -36.90625 L 14.703125 0 Z M 5.09375 0 "/></g></g></g><g fill="#ffffff" fill-opacity="1"><g transform="translate(284.07555, 134.142519)"><g><path d="M 20.328125 0 L 1.125 -52.5 L 11.40625 -52.5 L 26.25 -9.828125 L 41.171875 -52.5 L 51.296875 -52.5 L 32.09375 0 Z M 20.328125 0 "/></g></g></g></svg>