<?xml version="1.0" standalone="no"?> <!DOCTYPE svg PUBLIC "-//W3C//DTD SVG 20010904//EN" "http://www.w3.org/TR/2001/REC-SVG-20010904/DTD/svg10.dtd"> <svg version="1.0" xmlns="http://www.w3.org/2000/svg" width="600.000000pt" height="600.000000pt" viewBox="0 0 600.000000 600.000000" preserveAspectRatio="xMidYMid meet"> <g transform="translate(0.000000,600.000000) scale(0.100000,-0.100000)" fill="#000000" stroke="none"> <path d="M150 4690 l0 -190 2838 -2 c1560 -2 2839 -2 2842 0 2 1 -81 88 -185 192 l-190 190 -2652 0 -2653 0 0 -190z"/> <path d="M150 3005 l0 -1105 180 0 180 0 0 465 0 465 762 0 763 0 -165 165 -165 165 -597 0 -598 0 0 296 0 296 580 -3 580 -4 182 183 183 182 -943 0 -942 0 0 -1105z"/> <path d="M2315 4082 c-374 -130 -523 -582 -304 -919 84 -129 223 -234 389 -294 64 -23 71 -24 580 -29 500 -5 516 -6 560 -26 25 -12 63 -39 84 -60 145 -145 73 -399 -131 -460 -38 -12 -210 -14 -972 -14 l-926 -1 -193 -189 c-107 -105 -190 -190 -185 -190 4 -1 540 0 1191 0 1165 1 1183 1 1249 21 101 32 170 75 259 163 114 113 162 213 184 380 25 183 -49 387 -195 537 -77 79 -171 141 -271 176 l-79 28 -530 5 c-495 5 -532 6 -565 24 -105 56 -156 130 -163 233 -8 110 48 203 152 255 l46 23 692 0 693 0 182 183 183 182 -925 0 -925 0 -80 -28z"/> <path d="M4587 3592 l-517 -517 588 -587 587 -586 293 -4 c160 -3 292 -2 292 1 0 4 -263 269 -585 591 -322 321 -585 586 -585 587 0 1 233 234 518 517 l517 515 -295 1 -295 0 -518 -518z"/> <path d="M345 1320 l190 -190 2652 0 2653 0 0 190 0 190 -2842 0 -2843 0 190 -190z"/> </g> </svg>