<svg xmlns="http://www.w3.org/2000/svg" xmlns:xlink="http://www.w3.org/1999/xlink" width="1500" zoomAndPan="magnify" viewBox="0 0 1125 374.999991" height="500" preserveAspectRatio="xMidYMid meet" version="1.0"><defs><g/></defs><path stroke-linecap="butt" transform="matrix(0.000000001309, 0.75, -0.75, 0.000000001309, 504.264004, 48.691403)" fill="none" stroke-linejoin="miter" d="M 0.00000404575 9.99784 L 370.166695 9.99784 " stroke="#ffffff" stroke-width="20" stroke-opacity="1" stroke-miterlimit="4"/><g fill="#ffffff" fill-opacity="1"><g transform="translate(543.642938, 268.628721)"><g><path d="M 10.75 0 L 10.75 -101.65625 L 44.140625 -101.65625 C 52.078125 -101.65625 58.613281 -100.347656 63.75 -97.734375 C 68.882812 -95.117188 72.6875 -91.582031 75.15625 -87.125 C 77.625 -82.675781 78.859375 -77.644531 78.859375 -72.03125 C 78.859375 -66.507812 77.644531 -61.519531 75.21875 -57.0625 C 72.800781 -52.613281 69.023438 -49.054688 63.890625 -46.390625 C 58.765625 -43.734375 52.179688 -42.40625 44.140625 -42.40625 L 22.9375 -42.40625 L 22.9375 0 Z M 22.9375 -52.71875 L 43.859375 -52.71875 C 51.984375 -52.71875 57.765625 -54.4375 61.203125 -57.875 C 64.640625 -61.3125 66.359375 -66.03125 66.359375 -72.03125 C 66.359375 -78.125 64.640625 -82.890625 61.203125 -86.328125 C 57.765625 -89.765625 51.984375 -91.484375 43.859375 -91.484375 L 22.9375 -91.484375 Z M 22.9375 -52.71875 "/></g></g></g><g fill="#ffffff" fill-opacity="1"><g transform="translate(627.717845, 268.628721)"><g><path d="M 10.015625 0 L 10.015625 -72.03125 L 21.0625 -72.03125 L 22.078125 -58.234375 C 24.296875 -62.972656 27.679688 -66.742188 32.234375 -69.546875 C 36.785156 -72.359375 42.398438 -73.765625 49.078125 -73.765625 L 49.078125 -60.984375 L 45.75 -60.984375 C 41.488281 -60.984375 37.566406 -60.234375 33.984375 -58.734375 C 30.398438 -57.234375 27.539062 -54.691406 25.40625 -51.109375 C 23.28125 -47.535156 22.21875 -42.601562 22.21875 -36.3125 L 22.21875 0 Z M 10.015625 0 "/></g></g></g><g fill="#ffffff" fill-opacity="1"><g transform="translate(677.668934, 268.628721)"><g><path d="M 42.84375 1.75 C 36.0625 1.75 29.957031 0.203125 24.53125 -2.890625 C 19.113281 -5.992188 14.832031 -10.378906 11.6875 -16.046875 C 8.539062 -21.710938 6.96875 -28.367188 6.96875 -36.015625 C 6.96875 -43.660156 8.566406 -50.316406 11.765625 -55.984375 C 14.960938 -61.648438 19.296875 -66.03125 24.765625 -69.125 C 30.234375 -72.21875 36.351562 -73.765625 43.125 -73.765625 C 49.90625 -73.765625 56.003906 -72.21875 61.421875 -69.125 C 66.847656 -66.03125 71.132812 -61.648438 74.28125 -55.984375 C 77.425781 -50.316406 79 -43.660156 79 -36.015625 C 79 -28.367188 77.398438 -21.710938 74.203125 -16.046875 C 71.015625 -10.378906 66.679688 -5.992188 61.203125 -2.890625 C 55.734375 0.203125 49.613281 1.75 42.84375 1.75 Z M 42.84375 -8.71875 C 47 -8.71875 50.867188 -9.734375 54.453125 -11.765625 C 58.035156 -13.796875 60.941406 -16.84375 63.171875 -20.90625 C 65.398438 -24.976562 66.515625 -30.015625 66.515625 -36.015625 C 66.515625 -42.015625 65.421875 -47.046875 63.234375 -51.109375 C 61.054688 -55.179688 58.175781 -58.234375 54.59375 -60.265625 C 51.019531 -62.296875 47.195312 -63.3125 43.125 -63.3125 C 38.96875 -63.3125 35.097656 -62.296875 31.515625 -60.265625 C 27.929688 -58.234375 25.023438 -55.179688 22.796875 -51.109375 C 20.566406 -47.046875 19.453125 -42.015625 19.453125 -36.015625 C 19.453125 -30.015625 20.566406 -24.976562 22.796875 -20.90625 C 25.023438 -16.84375 27.90625 -13.796875 31.4375 -11.765625 C 34.96875 -9.734375 38.769531 -8.71875 42.84375 -8.71875 Z M 42.84375 -8.71875 "/></g></g></g><g fill="#ffffff" fill-opacity="1"><g transform="translate(763.631533, 268.628721)"><g><path d="M 18 -88 C 15.675781 -88 13.691406 -88.796875 12.046875 -90.390625 C 10.398438 -91.992188 9.578125 -94.003906 9.578125 -96.421875 C 9.578125 -98.742188 10.398438 -100.679688 12.046875 -102.234375 C 13.691406 -103.785156 15.675781 -104.5625 18 -104.5625 C 20.332031 -104.5625 22.296875 -103.785156 23.890625 -102.234375 C 25.484375 -100.679688 26.28125 -98.742188 26.28125 -96.421875 C 26.28125 -94.003906 25.484375 -91.992188 23.890625 -90.390625 C 22.296875 -88.796875 20.332031 -88 18 -88 Z M -4.0625 31.953125 L -4.0625 21.5 L 1.59375 21.5 C 5.175781 21.5 7.765625 20.742188 9.359375 19.234375 C 10.960938 17.734375 11.765625 15.195312 11.765625 11.625 L 11.765625 -72.03125 L 23.96875 -72.03125 L 23.96875 11.90625 C 23.96875 18.875 22.222656 23.957031 18.734375 27.15625 C 15.242188 30.351562 10.160156 31.953125 3.484375 31.953125 Z M -4.0625 31.953125 "/></g></g></g><g fill="#ffffff" fill-opacity="1"><g transform="translate(798.771644, 268.628721)"><g><path d="M 42.40625 1.75 C 35.53125 1.75 29.429688 0.175781 24.109375 -2.96875 C 18.785156 -6.125 14.597656 -10.507812 11.546875 -16.125 C 8.492188 -21.738281 6.96875 -28.367188 6.96875 -36.015625 C 6.96875 -43.566406 8.46875 -50.171875 11.46875 -55.828125 C 14.46875 -61.492188 18.65625 -65.898438 24.03125 -69.046875 C 29.40625 -72.191406 35.625 -73.765625 42.6875 -73.765625 C 49.664062 -73.765625 55.691406 -72.191406 60.765625 -69.046875 C 65.847656 -65.898438 69.742188 -61.757812 72.453125 -56.625 C 75.171875 -51.5 76.53125 -45.984375 76.53125 -40.078125 C 76.53125 -39.015625 76.503906 -37.945312 76.453125 -36.875 C 76.410156 -35.8125 76.390625 -34.601562 76.390625 -33.25 L 19.03125 -33.25 C 19.3125 -27.738281 20.585938 -23.164062 22.859375 -19.53125 C 25.140625 -15.90625 28 -13.171875 31.4375 -11.328125 C 34.875 -9.484375 38.53125 -8.5625 42.40625 -8.5625 C 47.4375 -8.5625 51.644531 -9.722656 55.03125 -12.046875 C 58.425781 -14.367188 60.894531 -17.519531 62.4375 -21.5 L 74.5 -21.5 C 72.5625 -14.8125 68.859375 -9.265625 63.390625 -4.859375 C 57.921875 -0.453125 50.925781 1.75 42.40625 1.75 Z M 42.40625 -63.453125 C 36.59375 -63.453125 31.4375 -61.6875 26.9375 -58.15625 C 22.4375 -54.625 19.847656 -49.46875 19.171875 -42.6875 L 64.484375 -42.6875 C 64.191406 -49.175781 61.960938 -54.257812 57.796875 -57.9375 C 53.628906 -61.613281 48.5 -63.453125 42.40625 -63.453125 Z M 42.40625 -63.453125 "/></g></g></g><g fill="#ffffff" fill-opacity="1"><g transform="translate(881.394502, 268.628721)"><g><path d="M 43.125 1.75 C 36.25 1.75 30.078125 0.175781 24.609375 -2.96875 C 19.140625 -6.125 14.832031 -10.53125 11.6875 -16.1875 C 8.539062 -21.851562 6.96875 -28.460938 6.96875 -36.015625 C 6.96875 -43.566406 8.539062 -50.171875 11.6875 -55.828125 C 14.832031 -61.492188 19.140625 -65.898438 24.609375 -69.046875 C 30.078125 -72.191406 36.25 -73.765625 43.125 -73.765625 C 51.644531 -73.765625 58.832031 -71.535156 64.6875 -67.078125 C 70.550781 -62.628906 74.253906 -56.679688 75.796875 -49.234375 L 63.3125 -49.234375 C 62.34375 -53.679688 59.96875 -57.140625 56.1875 -59.609375 C 52.414062 -62.078125 48.015625 -63.3125 42.984375 -63.3125 C 38.921875 -63.3125 35.097656 -62.296875 31.515625 -60.265625 C 27.929688 -58.234375 25.023438 -55.179688 22.796875 -51.109375 C 20.566406 -47.046875 19.453125 -42.015625 19.453125 -36.015625 C 19.453125 -30.015625 20.566406 -24.976562 22.796875 -20.90625 C 25.023438 -16.84375 27.929688 -13.769531 31.515625 -11.6875 C 35.097656 -9.601562 38.921875 -8.5625 42.984375 -8.5625 C 48.015625 -8.5625 52.414062 -9.796875 56.1875 -12.265625 C 59.96875 -14.734375 62.34375 -18.242188 63.3125 -22.796875 L 75.796875 -22.796875 C 74.347656 -15.535156 70.671875 -9.628906 64.765625 -5.078125 C 58.859375 -0.523438 51.644531 1.75 43.125 1.75 Z M 43.125 1.75 "/></g></g></g><g fill="#ffffff" fill-opacity="1"><g transform="translate(962.129544, 268.628721)"><g><path d="M 38.484375 0 C 31.898438 0 26.71875 -1.59375 22.9375 -4.78125 C 19.164062 -7.976562 17.28125 -13.742188 17.28125 -22.078125 L 17.28125 -61.71875 L 4.796875 -61.71875 L 4.796875 -72.03125 L 17.28125 -72.03125 L 18.875 -89.3125 L 29.484375 -89.3125 L 29.484375 -72.03125 L 50.6875 -72.03125 L 50.6875 -61.71875 L 29.484375 -61.71875 L 29.484375 -22.078125 C 29.484375 -17.523438 30.398438 -14.445312 32.234375 -12.84375 C 34.078125 -11.25 37.320312 -10.453125 41.96875 -10.453125 L 49.515625 -10.453125 L 49.515625 0 Z M 38.484375 0 "/></g></g></g><path fill="#ffffff" d="M 84.222656 81.875 L 84.222656 93.75 L 261.597656 93.875 C 359.097656 94 439.035156 94 439.222656 93.875 C 439.347656 93.8125 434.160156 88.375 427.660156 81.875 L 415.785156 70 L 84.222656 70 Z M 84.222656 81.875 " fill-opacity="1" fill-rule="nonzero"/><path fill="#ffffff" d="M 84.222656 187.1875 L 84.222656 256.25 L 106.722656 256.25 L 106.722656 198.125 L 202.035156 198.125 L 181.410156 177.5 L 106.722656 177.5 L 106.722656 140.5 L 142.972656 140.6875 L 179.222656 140.9375 L 190.597656 129.5 L 202.035156 118.125 L 84.222656 118.125 Z M 84.222656 187.1875 " fill-opacity="1" fill-rule="nonzero"/><path fill="#ffffff" d="M 219.535156 119.875 C 196.160156 128 186.847656 156.25 200.535156 177.3125 C 205.785156 185.375 214.472656 191.9375 224.847656 195.6875 C 228.847656 197.125 229.285156 197.1875 261.097656 197.5 C 292.347656 197.8125 293.347656 197.875 296.097656 199.125 C 297.660156 199.875 300.035156 201.5625 301.347656 202.875 C 310.410156 211.9375 305.910156 227.8125 293.160156 231.625 C 290.785156 232.375 280.035156 232.5 232.410156 232.5 L 174.535156 232.5625 L 162.472656 244.375 C 155.785156 250.9375 150.597656 256.25 150.910156 256.25 C 151.160156 256.3125 184.660156 256.25 225.347656 256.25 C 298.160156 256.1875 299.285156 256.1875 303.410156 254.9375 C 309.722656 252.9375 314.035156 250.25 319.597656 244.75 C 326.722656 237.6875 329.722656 231.4375 331.097656 221 C 332.660156 209.5625 328.035156 196.8125 318.910156 187.4375 C 314.097656 182.5 308.222656 178.625 301.972656 176.4375 L 297.035156 174.6875 L 263.910156 174.375 C 232.972656 174.0625 230.660156 174 228.597656 172.875 C 222.035156 169.375 218.847656 164.75 218.410156 158.3125 C 217.910156 151.4375 221.410156 145.625 227.910156 142.375 L 230.785156 140.9375 L 317.347656 140.9375 L 328.722656 129.5 L 340.160156 118.125 L 224.535156 118.125 Z M 219.535156 119.875 " fill-opacity="1" fill-rule="nonzero"/><path fill="#ffffff" d="M 361.535156 150.5 L 329.222656 182.8125 L 365.972656 219.5 L 402.660156 256.125 L 420.972656 256.375 C 430.972656 256.5625 439.222656 256.5 439.222656 256.3125 C 439.222656 256.0625 422.785156 239.5 402.660156 219.375 C 382.535156 199.3125 366.097656 182.75 366.097656 182.6875 C 366.097656 182.625 380.660156 168.0625 398.472656 150.375 L 430.785156 118.1875 L 412.347656 118.125 L 393.910156 118.125 Z M 361.535156 150.5 " fill-opacity="1" fill-rule="nonzero"/><path fill="#ffffff" d="M 96.410156 292.5 L 108.285156 304.375 L 439.847656 304.375 L 439.847656 280.625 L 84.535156 280.625 Z M 96.410156 292.5 " fill-opacity="1" fill-rule="nonzero"/><g fill="#ffffff" fill-opacity="1"><g transform="translate(543.642938, 119.146574)"><g><path d="M 5.28125 0 L 5.28125 -23.359375 L 1.15625 -23.359375 L 1.15625 -27.25 L 5.28125 -27.25 L 5.28125 -31.984375 C 5.28125 -34.617188 5.9375 -36.539062 7.25 -37.75 C 8.570312 -38.957031 10.5 -39.5625 13.03125 -39.5625 L 15.765625 -39.5625 L 15.765625 -35.609375 L 13.734375 -35.609375 C 12.347656 -35.609375 11.359375 -35.320312 10.765625 -34.75 C 10.179688 -34.1875 9.890625 -33.226562 9.890625 -31.875 L 9.890625 -27.25 L 16.59375 -27.25 L 16.59375 -23.359375 L 9.890625 -23.359375 L 9.890625 0 Z M 5.28125 0 "/></g></g></g><g fill="#ffffff" fill-opacity="1"><g transform="translate(560.841805, 119.146574)"><g><path d="M 16.046875 0.65625 C 13.441406 0.65625 11.128906 0.0625 9.109375 -1.125 C 7.097656 -2.3125 5.515625 -3.96875 4.359375 -6.09375 C 3.210938 -8.21875 2.640625 -10.726562 2.640625 -13.625 C 2.640625 -16.488281 3.207031 -18.988281 4.34375 -21.125 C 5.476562 -23.269531 7.0625 -24.9375 9.09375 -26.125 C 11.125 -27.320312 13.476562 -27.921875 16.15625 -27.921875 C 18.789062 -27.921875 21.070312 -27.320312 23 -26.125 C 24.925781 -24.9375 26.398438 -23.367188 27.421875 -21.421875 C 28.441406 -19.484375 28.953125 -17.398438 28.953125 -15.171875 C 28.953125 -14.765625 28.941406 -14.359375 28.921875 -13.953125 C 28.910156 -13.554688 28.90625 -13.097656 28.90625 -12.578125 L 7.203125 -12.578125 C 7.304688 -10.492188 7.789062 -8.765625 8.65625 -7.390625 C 9.519531 -6.015625 10.597656 -4.976562 11.890625 -4.28125 C 13.191406 -3.59375 14.578125 -3.25 16.046875 -3.25 C 17.953125 -3.25 19.546875 -3.6875 20.828125 -4.5625 C 22.109375 -5.4375 23.039062 -6.628906 23.625 -8.140625 L 28.1875 -8.140625 C 27.457031 -5.609375 26.054688 -3.507812 23.984375 -1.84375 C 21.910156 -0.175781 19.265625 0.65625 16.046875 0.65625 Z M 16.046875 -24.015625 C 13.847656 -24.015625 11.894531 -23.34375 10.1875 -22 C 8.488281 -20.664062 7.507812 -18.71875 7.25 -16.15625 L 24.40625 -16.15625 C 24.289062 -18.613281 23.445312 -20.535156 21.875 -21.921875 C 20.300781 -23.316406 18.359375 -24.015625 16.046875 -24.015625 Z M 16.046875 -24.015625 "/></g></g></g><g fill="#ffffff" fill-opacity="1"><g transform="translate(592.107874, 119.146574)"><g><path d="M 3.796875 0 L 3.796875 -39.5625 L 8.40625 -39.5625 L 8.40625 0 Z M 3.796875 0 "/></g></g></g><g fill="#ffffff" fill-opacity="1"><g transform="translate(604.306588, 119.146574)"><g><path d="M 6.59375 -33.296875 C 5.675781 -33.296875 4.914062 -33.597656 4.3125 -34.203125 C 3.707031 -34.804688 3.40625 -35.566406 3.40625 -36.484375 C 3.40625 -37.367188 3.707031 -38.101562 4.3125 -38.6875 C 4.914062 -39.269531 5.675781 -39.5625 6.59375 -39.5625 C 7.46875 -39.5625 8.21875 -39.269531 8.84375 -38.6875 C 9.46875 -38.101562 9.78125 -37.367188 9.78125 -36.484375 C 9.78125 -35.566406 9.46875 -34.804688 8.84375 -34.203125 C 8.21875 -33.597656 7.46875 -33.296875 6.59375 -33.296875 Z M 4.28125 0 L 4.28125 -27.25 L 8.90625 -27.25 L 8.90625 0 Z M 4.28125 0 "/></g></g></g><g fill="#ffffff" fill-opacity="1"><g transform="translate(617.439438, 119.146574)"><g><path d="M 1.046875 0 L 10.5 -13.625 L 1.046875 -27.25 L 6.046875 -27.25 L 13.6875 -15.984375 L 21.375 -27.25 L 26.328125 -27.25 L 16.875 -13.625 L 26.328125 0 L 21.375 0 L 13.6875 -11.265625 L 6.046875 0 Z M 1.046875 0 "/></g></g></g><g fill="#ffffff" fill-opacity="1"><g transform="translate(644.804126, 119.146574)"><g><path d="M 14.234375 0.65625 C 10.972656 0.65625 8.257812 -0.164062 6.09375 -1.8125 C 3.9375 -3.457031 2.675781 -5.691406 2.3125 -8.515625 L 7.03125 -8.515625 C 7.320312 -7.085938 8.082031 -5.851562 9.3125 -4.8125 C 10.539062 -3.769531 12.195312 -3.25 14.28125 -3.25 C 16.226562 -3.25 17.660156 -3.660156 18.578125 -4.484375 C 19.492188 -5.304688 19.953125 -6.285156 19.953125 -7.421875 C 19.953125 -9.066406 19.351562 -10.164062 18.15625 -10.71875 C 16.96875 -11.269531 15.296875 -11.765625 13.140625 -12.203125 C 11.671875 -12.492188 10.203125 -12.910156 8.734375 -13.453125 C 7.273438 -14.003906 6.050781 -14.785156 5.0625 -15.796875 C 4.070312 -16.804688 3.578125 -18.132812 3.578125 -19.78125 C 3.578125 -22.164062 4.460938 -24.117188 6.234375 -25.640625 C 8.015625 -27.160156 10.425781 -27.921875 13.46875 -27.921875 C 16.363281 -27.921875 18.734375 -27.195312 20.578125 -25.75 C 22.429688 -24.300781 23.503906 -22.238281 23.796875 -19.5625 L 19.234375 -19.5625 C 19.046875 -20.957031 18.445312 -22.046875 17.4375 -22.828125 C 16.4375 -23.617188 15.09375 -24.015625 13.40625 -24.015625 C 11.757812 -24.015625 10.488281 -23.664062 9.59375 -22.96875 C 8.695312 -22.269531 8.25 -21.351562 8.25 -20.21875 C 8.25 -19.125 8.820312 -18.265625 9.96875 -17.640625 C 11.125 -17.015625 12.691406 -16.484375 14.671875 -16.046875 C 16.359375 -15.679688 17.960938 -15.234375 19.484375 -14.703125 C 21.003906 -14.171875 22.25 -13.378906 23.21875 -12.328125 C 24.1875 -11.285156 24.671875 -9.773438 24.671875 -7.796875 C 24.710938 -5.347656 23.785156 -3.328125 21.890625 -1.734375 C 20.003906 -0.140625 17.453125 0.65625 14.234375 0.65625 Z M 14.234375 0.65625 "/></g></g></g><g fill="#ffffff" fill-opacity="1"><g transform="translate(672.27871, 119.146574)"><g><path d="M 12.859375 0.65625 C 10.585938 0.65625 8.703125 0.269531 7.203125 -0.5 C 5.703125 -1.269531 4.582031 -2.296875 3.84375 -3.578125 C 3.113281 -4.859375 2.75 -6.25 2.75 -7.75 C 2.75 -10.53125 3.8125 -12.671875 5.9375 -14.171875 C 8.0625 -15.679688 10.957031 -16.4375 14.625 -16.4375 L 21.984375 -16.4375 L 21.984375 -16.765625 C 21.984375 -19.140625 21.359375 -20.941406 20.109375 -22.171875 C 18.867188 -23.398438 17.203125 -24.015625 15.109375 -24.015625 C 13.316406 -24.015625 11.769531 -23.566406 10.46875 -22.671875 C 9.164062 -21.773438 8.347656 -20.460938 8.015625 -18.734375 L 3.296875 -18.734375 C 3.484375 -20.710938 4.148438 -22.378906 5.296875 -23.734375 C 6.453125 -25.085938 7.890625 -26.125 9.609375 -26.84375 C 11.335938 -27.5625 13.171875 -27.921875 15.109375 -27.921875 C 18.921875 -27.921875 21.785156 -26.898438 23.703125 -24.859375 C 25.628906 -22.828125 26.59375 -20.128906 26.59375 -16.765625 L 26.59375 0 L 22.46875 0 L 22.203125 -4.890625 C 21.429688 -3.347656 20.300781 -2.035156 18.8125 -0.953125 C 17.332031 0.117188 15.347656 0.65625 12.859375 0.65625 Z M 13.578125 -3.25 C 15.335938 -3.25 16.847656 -3.703125 18.109375 -4.609375 C 19.367188 -5.523438 20.328125 -6.71875 20.984375 -8.1875 C 21.648438 -9.65625 21.984375 -11.191406 21.984375 -12.796875 L 21.984375 -12.859375 L 15 -12.859375 C 12.289062 -12.859375 10.375 -12.390625 9.25 -11.453125 C 8.132812 -10.523438 7.578125 -9.363281 7.578125 -7.96875 C 7.578125 -6.539062 8.097656 -5.394531 9.140625 -4.53125 C 10.191406 -3.675781 11.671875 -3.25 13.578125 -3.25 Z M 13.578125 -3.25 "/></g></g></g><g fill="#ffffff" fill-opacity="1"><g transform="translate(702.006202, 119.146574)"><g><path d="M 3.796875 0 L 3.796875 -27.25 L 7.96875 -27.25 L 8.25 -22.359375 C 9.125 -24.085938 10.382812 -25.445312 12.03125 -26.4375 C 13.675781 -27.425781 15.546875 -27.921875 17.640625 -27.921875 C 20.859375 -27.921875 23.429688 -26.9375 25.359375 -24.96875 C 27.285156 -23.007812 28.25 -20 28.25 -15.9375 L 28.25 0 L 23.625 0 L 23.625 -15.4375 C 23.625 -21.113281 21.28125 -23.953125 16.59375 -23.953125 C 14.25 -23.953125 12.296875 -23.097656 10.734375 -21.390625 C 9.179688 -19.691406 8.40625 -17.269531 8.40625 -14.125 L 8.40625 0 Z M 3.796875 0 "/></g></g></g><g fill="#ffffff" fill-opacity="1"><g transform="translate(733.437123, 119.146574)"><g><path d="M 16.15625 0.65625 C 13.445312 0.65625 11.070312 0.0351562 9.03125 -1.203125 C 7 -2.453125 5.425781 -4.15625 4.3125 -6.3125 C 3.195312 -8.476562 2.640625 -10.9375 2.640625 -13.6875 C 2.640625 -16.4375 3.207031 -18.878906 4.34375 -21.015625 C 5.476562 -23.160156 7.050781 -24.847656 9.0625 -26.078125 C 11.082031 -27.304688 13.46875 -27.921875 16.21875 -27.921875 C 18.445312 -27.921875 20.421875 -27.460938 22.140625 -26.546875 C 23.867188 -25.628906 25.207031 -24.347656 26.15625 -22.703125 L 26.15625 -39.5625 L 30.78125 -39.5625 L 30.78125 0 L 26.59375 0 L 26.15625 -4.5 C 25.28125 -3.1875 24.015625 -2 22.359375 -0.9375 C 20.710938 0.125 18.644531 0.65625 16.15625 0.65625 Z M 16.65625 -3.359375 C 18.488281 -3.359375 20.109375 -3.785156 21.515625 -4.640625 C 22.921875 -5.503906 24.019531 -6.703125 24.8125 -8.234375 C 25.601562 -9.773438 26 -11.570312 26 -13.625 C 26 -15.675781 25.601562 -17.472656 24.8125 -19.015625 C 24.019531 -20.554688 22.921875 -21.753906 21.515625 -22.609375 C 20.109375 -23.472656 18.488281 -23.90625 16.65625 -23.90625 C 14.851562 -23.90625 13.25 -23.472656 11.84375 -22.609375 C 10.4375 -21.753906 9.335938 -20.554688 8.546875 -19.015625 C 7.753906 -17.472656 7.359375 -15.675781 7.359375 -13.625 C 7.359375 -11.570312 7.753906 -9.773438 8.546875 -8.234375 C 9.335938 -6.703125 10.4375 -5.503906 11.84375 -4.640625 C 13.25 -3.785156 14.851562 -3.359375 16.65625 -3.359375 Z M 16.65625 -3.359375 "/></g></g></g><g fill="#ffffff" fill-opacity="1"><g transform="translate(767.945201, 119.146574)"><g><path d="M 16.046875 0.65625 C 13.441406 0.65625 11.128906 0.0625 9.109375 -1.125 C 7.097656 -2.3125 5.515625 -3.96875 4.359375 -6.09375 C 3.210938 -8.21875 2.640625 -10.726562 2.640625 -13.625 C 2.640625 -16.488281 3.207031 -18.988281 4.34375 -21.125 C 5.476562 -23.269531 7.0625 -24.9375 9.09375 -26.125 C 11.125 -27.320312 13.476562 -27.921875 16.15625 -27.921875 C 18.789062 -27.921875 21.070312 -27.320312 23 -26.125 C 24.925781 -24.9375 26.398438 -23.367188 27.421875 -21.421875 C 28.441406 -19.484375 28.953125 -17.398438 28.953125 -15.171875 C 28.953125 -14.765625 28.941406 -14.359375 28.921875 -13.953125 C 28.910156 -13.554688 28.90625 -13.097656 28.90625 -12.578125 L 7.203125 -12.578125 C 7.304688 -10.492188 7.789062 -8.765625 8.65625 -7.390625 C 9.519531 -6.015625 10.597656 -4.976562 11.890625 -4.28125 C 13.191406 -3.59375 14.578125 -3.25 16.046875 -3.25 C 17.953125 -3.25 19.546875 -3.6875 20.828125 -4.5625 C 22.109375 -5.4375 23.039062 -6.628906 23.625 -8.140625 L 28.1875 -8.140625 C 27.457031 -5.609375 26.054688 -3.507812 23.984375 -1.84375 C 21.910156 -0.175781 19.265625 0.65625 16.046875 0.65625 Z M 16.046875 -24.015625 C 13.847656 -24.015625 11.894531 -23.34375 10.1875 -22 C 8.488281 -20.664062 7.507812 -18.71875 7.25 -16.15625 L 24.40625 -16.15625 C 24.289062 -18.613281 23.445312 -20.535156 21.875 -21.921875 C 20.300781 -23.316406 18.359375 -24.015625 16.046875 -24.015625 Z M 16.046875 -24.015625 "/></g></g></g><g fill="#ffffff" fill-opacity="1"><g transform="translate(799.211281, 119.146574)"><g><path d="M 3.796875 0 L 3.796875 -27.25 L 7.96875 -27.25 L 8.359375 -22.03125 C 9.191406 -23.832031 10.46875 -25.265625 12.1875 -26.328125 C 13.914062 -27.390625 16.046875 -27.921875 18.578125 -27.921875 L 18.578125 -23.078125 L 17.3125 -23.078125 C 15.695312 -23.078125 14.210938 -22.789062 12.859375 -22.21875 C 11.503906 -21.65625 10.421875 -20.695312 9.609375 -19.34375 C 8.804688 -17.988281 8.40625 -16.117188 8.40625 -13.734375 L 8.40625 0 Z M 3.796875 0 "/></g></g></g><g fill="#ffffff" fill-opacity="1"><g transform="translate(819.157828, 119.146574)"><g><path d="M 14.234375 0.65625 C 10.972656 0.65625 8.257812 -0.164062 6.09375 -1.8125 C 3.9375 -3.457031 2.675781 -5.691406 2.3125 -8.515625 L 7.03125 -8.515625 C 7.320312 -7.085938 8.082031 -5.851562 9.3125 -4.8125 C 10.539062 -3.769531 12.195312 -3.25 14.28125 -3.25 C 16.226562 -3.25 17.660156 -3.660156 18.578125 -4.484375 C 19.492188 -5.304688 19.953125 -6.285156 19.953125 -7.421875 C 19.953125 -9.066406 19.351562 -10.164062 18.15625 -10.71875 C 16.96875 -11.269531 15.296875 -11.765625 13.140625 -12.203125 C 11.671875 -12.492188 10.203125 -12.910156 8.734375 -13.453125 C 7.273438 -14.003906 6.050781 -14.785156 5.0625 -15.796875 C 4.070312 -16.804688 3.578125 -18.132812 3.578125 -19.78125 C 3.578125 -22.164062 4.460938 -24.117188 6.234375 -25.640625 C 8.015625 -27.160156 10.425781 -27.921875 13.46875 -27.921875 C 16.363281 -27.921875 18.734375 -27.195312 20.578125 -25.75 C 22.429688 -24.300781 23.503906 -22.238281 23.796875 -19.5625 L 19.234375 -19.5625 C 19.046875 -20.957031 18.445312 -22.046875 17.4375 -22.828125 C 16.4375 -23.617188 15.09375 -24.015625 13.40625 -24.015625 C 11.757812 -24.015625 10.488281 -23.664062 9.59375 -22.96875 C 8.695312 -22.269531 8.25 -21.351562 8.25 -20.21875 C 8.25 -19.125 8.820312 -18.265625 9.96875 -17.640625 C 11.125 -17.015625 12.691406 -16.484375 14.671875 -16.046875 C 16.359375 -15.679688 17.960938 -15.234375 19.484375 -14.703125 C 21.003906 -14.171875 22.25 -13.378906 23.21875 -12.328125 C 24.1875 -11.285156 24.671875 -9.773438 24.671875 -7.796875 C 24.710938 -5.347656 23.785156 -3.328125 21.890625 -1.734375 C 20.003906 -0.140625 17.453125 0.65625 14.234375 0.65625 Z M 14.234375 0.65625 "/></g></g></g><g fill="#ffffff" fill-opacity="1"><g transform="translate(846.63239, 119.146574)"><g><path d="M 5.390625 0.28125 C 4.472656 0.28125 3.710938 -0.0195312 3.109375 -0.625 C 2.503906 -1.226562 2.203125 -1.972656 2.203125 -2.859375 C 2.203125 -3.734375 2.503906 -4.472656 3.109375 -5.078125 C 3.710938 -5.679688 4.472656 -5.984375 5.390625 -5.984375 C 6.265625 -5.984375 7.003906 -5.679688 7.609375 -5.078125 C 8.210938 -4.472656 8.515625 -3.734375 8.515625 -2.859375 C 8.515625 -1.972656 8.210938 -1.226562 7.609375 -0.625 C 7.003906 -0.0195312 6.265625 0.28125 5.390625 0.28125 Z M 5.390625 0.28125 "/></g></g></g><g fill="#ffffff" fill-opacity="1"><g transform="translate(857.347492, 119.146574)"><g><path d="M 16.328125 0.65625 C 13.722656 0.65625 11.382812 0.0625 9.3125 -1.125 C 7.238281 -2.3125 5.609375 -3.976562 4.421875 -6.125 C 3.234375 -8.269531 2.640625 -10.769531 2.640625 -13.625 C 2.640625 -16.488281 3.234375 -18.988281 4.421875 -21.125 C 5.609375 -23.269531 7.238281 -24.9375 9.3125 -26.125 C 11.382812 -27.320312 13.722656 -27.921875 16.328125 -27.921875 C 19.546875 -27.921875 22.265625 -27.078125 24.484375 -25.390625 C 26.703125 -23.703125 28.101562 -21.445312 28.6875 -18.625 L 23.953125 -18.625 C 23.585938 -20.3125 22.691406 -21.617188 21.265625 -22.546875 C 19.835938 -23.484375 18.171875 -23.953125 16.265625 -23.953125 C 14.722656 -23.953125 13.273438 -23.566406 11.921875 -22.796875 C 10.566406 -22.035156 9.46875 -20.882812 8.625 -19.34375 C 7.78125 -17.800781 7.359375 -15.894531 7.359375 -13.625 C 7.359375 -11.351562 7.78125 -9.445312 8.625 -7.90625 C 9.46875 -6.375 10.566406 -5.210938 11.921875 -4.421875 C 13.273438 -3.640625 14.722656 -3.25 16.265625 -3.25 C 18.171875 -3.25 19.835938 -3.710938 21.265625 -4.640625 C 22.691406 -5.578125 23.585938 -6.90625 23.953125 -8.625 L 28.6875 -8.625 C 28.132812 -5.875 26.738281 -3.640625 24.5 -1.921875 C 22.269531 -0.203125 19.546875 0.65625 16.328125 0.65625 Z M 16.328125 0.65625 "/></g></g></g><g fill="#ffffff" fill-opacity="1"><g transform="translate(888.668505, 119.146574)"><g><path d="M 16.21875 0.65625 C 13.644531 0.65625 11.332031 0.0703125 9.28125 -1.09375 C 7.226562 -2.269531 5.609375 -3.925781 4.421875 -6.0625 C 3.234375 -8.207031 2.640625 -10.726562 2.640625 -13.625 C 2.640625 -16.519531 3.242188 -19.039062 4.453125 -21.1875 C 5.660156 -23.332031 7.296875 -24.988281 9.359375 -26.15625 C 11.429688 -27.332031 13.753906 -27.921875 16.328125 -27.921875 C 18.890625 -27.921875 21.195312 -27.332031 23.25 -26.15625 C 25.300781 -24.988281 26.921875 -23.332031 28.109375 -21.1875 C 29.296875 -19.039062 29.890625 -16.519531 29.890625 -13.625 C 29.890625 -10.726562 29.285156 -8.207031 28.078125 -6.0625 C 26.867188 -3.925781 25.226562 -2.269531 23.15625 -1.09375 C 21.09375 0.0703125 18.78125 0.65625 16.21875 0.65625 Z M 16.21875 -3.296875 C 17.789062 -3.296875 19.253906 -3.679688 20.609375 -4.453125 C 21.960938 -5.222656 23.0625 -6.375 23.90625 -7.90625 C 24.75 -9.445312 25.171875 -11.351562 25.171875 -13.625 C 25.171875 -15.894531 24.757812 -17.800781 23.9375 -19.34375 C 23.113281 -20.882812 22.019531 -22.035156 20.65625 -22.796875 C 19.300781 -23.566406 17.859375 -23.953125 16.328125 -23.953125 C 14.742188 -23.953125 13.273438 -23.566406 11.921875 -22.796875 C 10.566406 -22.035156 9.46875 -20.882812 8.625 -19.34375 C 7.78125 -17.800781 7.359375 -15.894531 7.359375 -13.625 C 7.359375 -11.351562 7.78125 -9.445312 8.625 -7.90625 C 9.46875 -6.375 10.554688 -5.222656 11.890625 -4.453125 C 13.234375 -3.679688 14.675781 -3.296875 16.21875 -3.296875 Z M 16.21875 -3.296875 "/></g></g></g><g fill="#ffffff" fill-opacity="1"><g transform="translate(921.198425, 119.146574)"><g><path d="M 3.796875 0 L 3.796875 -27.25 L 7.96875 -27.25 L 8.296875 -23.296875 C 9.171875 -24.765625 10.34375 -25.898438 11.8125 -26.703125 C 13.28125 -27.515625 14.929688 -27.921875 16.765625 -27.921875 C 18.921875 -27.921875 20.773438 -27.476562 22.328125 -26.59375 C 23.890625 -25.71875 25.09375 -24.378906 25.9375 -22.578125 C 26.882812 -24.234375 28.191406 -25.535156 29.859375 -26.484375 C 31.535156 -27.441406 33.34375 -27.921875 35.28125 -27.921875 C 38.539062 -27.921875 41.140625 -26.9375 43.078125 -24.96875 C 45.023438 -23.007812 46 -20 46 -15.9375 L 46 0 L 41.4375 0 L 41.4375 -15.4375 C 41.4375 -18.257812 40.867188 -20.382812 39.734375 -21.8125 C 38.597656 -23.238281 36.96875 -23.953125 34.84375 -23.953125 C 32.644531 -23.953125 30.820312 -23.097656 29.375 -21.390625 C 27.925781 -19.691406 27.203125 -17.269531 27.203125 -14.125 L 27.203125 0 L 22.578125 0 L 22.578125 -15.4375 C 22.578125 -18.257812 22.007812 -20.382812 20.875 -21.8125 C 19.738281 -23.238281 18.109375 -23.953125 15.984375 -23.953125 C 13.828125 -23.953125 12.023438 -23.097656 10.578125 -21.390625 C 9.128906 -19.691406 8.40625 -17.269531 8.40625 -14.125 L 8.40625 0 Z M 3.796875 0 "/></g></g></g></svg>