<svg xmlns="http://www.w3.org/2000/svg" xmlns:xlink="http://www.w3.org/1999/xlink" width="500" zoomAndPan="magnify" viewBox="0 0 375 97.5" height="130" preserveAspectRatio="xMidYMid meet" version="1.0"><defs><g/><clipPath id="ef78c10518"><path d="M 109.585938 0 L 113.316406 0 L 113.316406 97.003906 L 109.585938 97.003906 Z M 109.585938 0 " clip-rule="nonzero"/></clipPath></defs><path fill="#ffffff" d="M 12.722656 81.578125 L 24.738281 13.734375 L 67.09375 13.734375 L 65.253906 23.523438 L 35.402344 23.523438 L 32.011719 42.808594 L 55.949219 42.808594 L 54.203125 52.308594 L 30.265625 52.308594 L 25.125 81.578125 Z M 12.722656 81.578125 " fill-opacity="1" fill-rule="nonzero"/><path fill="#ffffff" d="M 57.4375 69.550781 L 64.550781 29.0625 L 71.957031 29.0625 L 69.121094 45.433594 L 86.9375 29.0625 L 96.074219 29.0625 L 78.320312 45.140625 L 89.367188 69.550781 L 80.574219 69.550781 L 72.1875 50.640625 L 67.386719 55.03125 L 64.839844 69.550781 Z M 57.4375 69.550781 " fill-opacity="1" fill-rule="nonzero"/><path fill="#ffffff" d="M 39.007812 37.085938 L 40.355469 29.0625 L 71.785156 29.0625 L 70.363281 37.085938 Z M 39.007812 37.085938 " fill-opacity="1" fill-rule="nonzero"/><path fill="#ffffff" d="M 33.363281 69.550781 L 34.710938 61.523438 L 66.140625 61.523438 L 64.71875 69.550781 Z M 33.363281 69.550781 " fill-opacity="1" fill-rule="nonzero"/><path fill="#ffffff" d="M 57.859375 81.519531 L 59.207031 73.492188 L 90.636719 73.492188 L 89.210938 81.519531 Z M 57.859375 81.519531 " fill-opacity="1" fill-rule="nonzero"/><path fill="#ffffff" d="M 31.386719 81.519531 L 32.734375 73.492188 L 64.164062 73.492188 L 62.742188 81.519531 Z M 31.386719 81.519531 " fill-opacity="1" fill-rule="nonzero"/><path fill="#ffffff" d="M 22.351562 55.1875 L 23.699219 47.160156 L 55.128906 47.160156 L 53.707031 55.1875 Z M 22.351562 55.1875 " fill-opacity="1" fill-rule="nonzero"/><g clip-path="url(#ef78c10518)"><path fill="#ffffff" d="M 109.585938 0 L 113.316406 0 L 113.316406 97.003906 L 109.585938 97.003906 Z M 109.585938 0 " fill-opacity="1" fill-rule="nonzero"/></g><g fill="#ffffff" fill-opacity="1"><g transform="translate(122.497304, 46.405111)"><g><path d="M 3.453125 0 L 3.453125 -35.515625 L 26.375 -35.515625 L 26.375 -30.28125 L 9.9375 -30.28125 L 9.9375 -20.34375 L 23.234375 -20.34375 L 23.234375 -15.21875 L 9.9375 -15.21875 L 9.9375 0 Z M 3.453125 0 "/></g></g></g><g fill="#ffffff" fill-opacity="1"><g transform="translate(150.450823, 46.405111)"><g><path d="M 15.578125 0.609375 C 12.972656 0.609375 10.671875 0.160156 8.671875 -0.734375 C 6.679688 -1.628906 5.109375 -2.914062 3.953125 -4.59375 C 2.804688 -6.269531 2.21875 -8.304688 2.1875 -10.703125 L 9.03125 -10.703125 C 9.09375 -9.046875 9.691406 -7.648438 10.828125 -6.515625 C 11.960938 -5.378906 13.53125 -4.8125 15.53125 -4.8125 C 17.25 -4.8125 18.613281 -5.226562 19.625 -6.0625 C 20.644531 -6.894531 21.15625 -8.003906 21.15625 -9.390625 C 21.15625 -10.835938 20.707031 -11.96875 19.8125 -12.78125 C 18.914062 -13.59375 17.722656 -14.253906 16.234375 -14.765625 C 14.742188 -15.273438 13.15625 -15.816406 11.46875 -16.390625 C 8.726562 -17.335938 6.640625 -18.550781 5.203125 -20.03125 C 3.765625 -21.519531 3.046875 -23.5 3.046875 -25.96875 C 3.015625 -28.070312 3.515625 -29.875 4.546875 -31.375 C 5.578125 -32.882812 6.988281 -34.050781 8.78125 -34.875 C 10.570312 -35.707031 12.632812 -36.125 14.96875 -36.125 C 17.332031 -36.125 19.421875 -35.703125 21.234375 -34.859375 C 23.046875 -34.015625 24.46875 -32.828125 25.5 -31.296875 C 26.53125 -29.773438 27.078125 -27.96875 27.140625 -25.875 L 20.1875 -25.875 C 20.15625 -27.125 19.671875 -28.226562 18.734375 -29.1875 C 17.804688 -30.15625 16.515625 -30.640625 14.859375 -30.640625 C 13.441406 -30.671875 12.25 -30.320312 11.28125 -29.59375 C 10.320312 -28.875 9.84375 -27.820312 9.84375 -26.4375 C 9.84375 -25.25 10.210938 -24.304688 10.953125 -23.609375 C 11.703125 -22.921875 12.71875 -22.335938 14 -21.859375 C 15.289062 -21.390625 16.765625 -20.882812 18.421875 -20.34375 C 20.179688 -19.738281 21.785156 -19.03125 23.234375 -18.21875 C 24.691406 -17.40625 25.859375 -16.328125 26.734375 -14.984375 C 27.617188 -13.648438 28.0625 -11.9375 28.0625 -9.84375 C 28.0625 -7.976562 27.585938 -6.25 26.640625 -4.65625 C 25.691406 -3.070312 24.285156 -1.796875 22.421875 -0.828125 C 20.566406 0.128906 18.285156 0.609375 15.578125 0.609375 Z M 15.578125 0.609375 "/></g></g></g><g fill="#ffffff" fill-opacity="1"><g transform="translate(180.73803, 46.405111)"><g><path d="M 3.453125 0 L 3.453125 -35.515625 L 9.9375 -35.515625 L 9.9375 -21.15625 L 23.078125 -35.515625 L 31.09375 -35.515625 L 18.015625 -21.40625 L 31.453125 0 L 23.484375 0 L 13.34375 -16.4375 L 9.9375 -12.734375 L 9.9375 0 Z M 3.453125 0 "/></g></g></g><g fill="#ffffff" fill-opacity="1"><g transform="translate(122.497304, 89.541927)"><g><path d="M 8.796875 -14.53125 L 5.015625 -14.53125 L 5.015625 0 L 2.921875 0 L 2.921875 -14.53125 L 0.65625 -14.53125 L 0.65625 -16.296875 L 2.921875 -16.296875 L 2.921875 -17.421875 C 2.921875 -19.191406 3.375 -20.492188 4.28125 -21.328125 C 5.1875 -22.171875 6.65625 -22.59375 8.6875 -22.59375 L 8.6875 -20.796875 C 7.332031 -20.796875 6.378906 -20.535156 5.828125 -20.015625 C 5.285156 -19.503906 5.015625 -18.640625 5.015625 -17.421875 L 5.015625 -16.296875 L 8.796875 -16.296875 Z M 8.796875 -14.53125 "/></g></g></g><g fill="#ffffff" fill-opacity="1"><g transform="translate(132.19611, 89.541927)"><g><path d="M 17.125 -8.984375 C 17.125 -8.265625 17.109375 -7.71875 17.078125 -7.34375 L 3.546875 -7.34375 C 3.609375 -6.101562 3.90625 -5.046875 4.4375 -4.171875 C 4.976562 -3.296875 5.6875 -2.632812 6.5625 -2.1875 C 7.4375 -1.738281 8.394531 -1.515625 9.4375 -1.515625 C 10.78125 -1.515625 11.914062 -1.84375 12.84375 -2.5 C 13.769531 -3.15625 14.382812 -4.039062 14.6875 -5.15625 L 16.890625 -5.15625 C 16.492188 -3.570312 15.644531 -2.273438 14.34375 -1.265625 C 13.039062 -0.265625 11.40625 0.234375 9.4375 0.234375 C 7.894531 0.234375 6.515625 -0.109375 5.296875 -0.796875 C 4.085938 -1.484375 3.140625 -2.457031 2.453125 -3.71875 C 1.773438 -4.976562 1.4375 -6.453125 1.4375 -8.140625 C 1.4375 -9.835938 1.773438 -11.320312 2.453125 -12.59375 C 3.128906 -13.863281 4.070312 -14.835938 5.28125 -15.515625 C 6.5 -16.191406 7.882812 -16.53125 9.4375 -16.53125 C 10.988281 -16.53125 12.34375 -16.191406 13.5 -15.515625 C 14.664062 -14.835938 15.5625 -13.925781 16.1875 -12.78125 C 16.8125 -11.644531 17.125 -10.378906 17.125 -8.984375 Z M 15.015625 -9.046875 C 15.035156 -10.253906 14.789062 -11.285156 14.28125 -12.140625 C 13.769531 -13.003906 13.078125 -13.65625 12.203125 -14.09375 C 11.328125 -14.53125 10.375 -14.75 9.34375 -14.75 C 7.789062 -14.75 6.46875 -14.25 5.375 -13.25 C 4.28125 -12.257812 3.671875 -10.859375 3.546875 -9.046875 Z M 15.015625 -9.046875 "/></g></g></g><g fill="#ffffff" fill-opacity="1"><g transform="translate(150.758134, 89.541927)"><g><path d="M 4.484375 -22.078125 L 4.484375 0 L 2.390625 0 L 2.390625 -22.078125 Z M 4.484375 -22.078125 "/></g></g></g><g fill="#ffffff" fill-opacity="1"><g transform="translate(157.592061, 89.541927)"><g><path d="M 3.4375 -19.375 C 3.019531 -19.375 2.660156 -19.519531 2.359375 -19.8125 C 2.054688 -20.113281 1.90625 -20.484375 1.90625 -20.921875 C 1.90625 -21.359375 2.054688 -21.71875 2.359375 -22 C 2.660156 -22.289062 3.019531 -22.4375 3.4375 -22.4375 C 3.851562 -22.4375 4.207031 -22.289062 4.5 -22 C 4.800781 -21.71875 4.953125 -21.359375 4.953125 -20.921875 C 4.953125 -20.484375 4.800781 -20.113281 4.5 -19.8125 C 4.207031 -19.519531 3.851562 -19.375 3.4375 -19.375 Z M 4.484375 -16.296875 L 4.484375 0 L 2.390625 0 L 2.390625 -16.296875 Z M 4.484375 -16.296875 "/></g></g></g><g fill="#ffffff" fill-opacity="1"><g transform="translate(164.425988, 89.541927)"><g><path d="M 10.921875 0 L 6.71875 -6.5625 L 2.65625 0 L 0.453125 0 L 5.703125 -8.140625 L 0.5 -16.296875 L 2.859375 -16.296875 L 7.015625 -9.8125 L 11.046875 -16.296875 L 13.21875 -16.296875 L 8.03125 -8.234375 L 13.28125 0 Z M 10.921875 0 "/></g></g></g><g fill="#ffffff" fill-opacity="1"><g transform="translate(178.153528, 89.541927)"><g><path d="M 8 0.234375 C 6.125 0.234375 4.59375 -0.195312 3.40625 -1.0625 C 2.226562 -1.925781 1.570312 -3.101562 1.4375 -4.59375 L 3.578125 -4.59375 C 3.679688 -3.675781 4.113281 -2.929688 4.875 -2.359375 C 5.644531 -1.796875 6.675781 -1.515625 7.96875 -1.515625 C 9.101562 -1.515625 9.992188 -1.785156 10.640625 -2.328125 C 11.285156 -2.867188 11.609375 -3.535156 11.609375 -4.328125 C 11.609375 -4.878906 11.425781 -5.332031 11.0625 -5.6875 C 10.707031 -6.050781 10.253906 -6.335938 9.703125 -6.546875 C 9.160156 -6.753906 8.421875 -6.976562 7.484375 -7.21875 C 6.273438 -7.539062 5.289062 -7.859375 4.53125 -8.171875 C 3.78125 -8.492188 3.140625 -8.96875 2.609375 -9.59375 C 2.085938 -10.21875 1.828125 -11.054688 1.828125 -12.109375 C 1.828125 -12.910156 2.0625 -13.648438 2.53125 -14.328125 C 3.007812 -15.003906 3.6875 -15.539062 4.5625 -15.9375 C 5.4375 -16.332031 6.429688 -16.53125 7.546875 -16.53125 C 9.296875 -16.53125 10.707031 -16.085938 11.78125 -15.203125 C 12.863281 -14.316406 13.441406 -13.097656 13.515625 -11.546875 L 11.4375 -11.546875 C 11.375 -12.503906 11 -13.273438 10.3125 -13.859375 C 9.625 -14.453125 8.679688 -14.75 7.484375 -14.75 C 6.429688 -14.75 5.578125 -14.5 4.921875 -14 C 4.265625 -13.5 3.9375 -12.878906 3.9375 -12.140625 C 3.9375 -11.503906 4.128906 -10.984375 4.515625 -10.578125 C 4.910156 -10.171875 5.394531 -9.851562 5.96875 -9.625 C 6.539062 -9.394531 7.316406 -9.140625 8.296875 -8.859375 C 9.472656 -8.546875 10.40625 -8.238281 11.09375 -7.9375 C 11.789062 -7.632812 12.390625 -7.195312 12.890625 -6.625 C 13.390625 -6.050781 13.648438 -5.285156 13.671875 -4.328125 C 13.671875 -3.453125 13.429688 -2.671875 12.953125 -1.984375 C 12.472656 -1.296875 11.804688 -0.753906 10.953125 -0.359375 C 10.097656 0.0351562 9.113281 0.234375 8 0.234375 Z M 8 0.234375 "/></g></g></g><g fill="#ffffff" fill-opacity="1"><g transform="translate(193.373195, 89.541927)"><g><path d="M 1.4375 -8.171875 C 1.4375 -9.847656 1.769531 -11.316406 2.4375 -12.578125 C 3.101562 -13.835938 4.023438 -14.8125 5.203125 -15.5 C 6.390625 -16.1875 7.726562 -16.53125 9.21875 -16.53125 C 10.769531 -16.53125 12.109375 -16.171875 13.234375 -15.453125 C 14.359375 -14.742188 15.171875 -13.832031 15.671875 -12.71875 L 15.671875 -16.296875 L 17.75 -16.296875 L 17.75 0 L 15.671875 0 L 15.671875 -3.609375 C 15.148438 -2.492188 14.328125 -1.570312 13.203125 -0.84375 C 12.078125 -0.125 10.738281 0.234375 9.1875 0.234375 C 7.71875 0.234375 6.390625 -0.109375 5.203125 -0.796875 C 4.023438 -1.492188 3.101562 -2.476562 2.4375 -3.75 C 1.769531 -5.03125 1.4375 -6.503906 1.4375 -8.171875 Z M 15.671875 -8.140625 C 15.671875 -9.453125 15.398438 -10.601562 14.859375 -11.59375 C 14.328125 -12.59375 13.597656 -13.363281 12.671875 -13.90625 C 11.742188 -14.445312 10.722656 -14.71875 9.609375 -14.71875 C 8.453125 -14.71875 7.414062 -14.457031 6.5 -13.9375 C 5.59375 -13.414062 4.875 -12.660156 4.34375 -11.671875 C 3.8125 -10.691406 3.546875 -9.523438 3.546875 -8.171875 C 3.546875 -6.835938 3.8125 -5.664062 4.34375 -4.65625 C 4.875 -3.65625 5.59375 -2.890625 6.5 -2.359375 C 7.414062 -1.835938 8.453125 -1.578125 9.609375 -1.578125 C 10.722656 -1.578125 11.742188 -1.84375 12.671875 -2.375 C 13.597656 -2.914062 14.328125 -3.679688 14.859375 -4.671875 C 15.398438 -5.671875 15.671875 -6.828125 15.671875 -8.140625 Z M 15.671875 -8.140625 "/></g></g></g><g fill="#ffffff" fill-opacity="1"><g transform="translate(213.516868, 89.541927)"><g><path d="M 10.03125 -16.59375 C 11.976562 -16.59375 13.566406 -15.988281 14.796875 -14.78125 C 16.035156 -13.582031 16.65625 -11.835938 16.65625 -9.546875 L 16.65625 0 L 14.59375 0 L 14.59375 -9.3125 C 14.59375 -11.082031 14.148438 -12.429688 13.265625 -13.359375 C 12.378906 -14.296875 11.171875 -14.765625 9.640625 -14.765625 C 8.066406 -14.765625 6.8125 -14.265625 5.875 -13.265625 C 4.945312 -12.273438 4.484375 -10.816406 4.484375 -8.890625 L 4.484375 0 L 2.390625 0 L 2.390625 -16.296875 L 4.484375 -16.296875 L 4.484375 -13.515625 C 4.992188 -14.515625 5.734375 -15.273438 6.703125 -15.796875 C 7.679688 -16.328125 8.789062 -16.59375 10.03125 -16.59375 Z M 10.03125 -16.59375 "/></g></g></g><g fill="#ffffff" fill-opacity="1"><g transform="translate(232.407162, 89.541927)"><g><path d="M 1.4375 -8.171875 C 1.4375 -9.847656 1.773438 -11.316406 2.453125 -12.578125 C 3.128906 -13.835938 4.054688 -14.8125 5.234375 -15.5 C 6.421875 -16.1875 7.757812 -16.53125 9.25 -16.53125 C 10.6875 -16.53125 11.976562 -16.179688 13.125 -15.484375 C 14.28125 -14.785156 15.128906 -13.878906 15.671875 -12.765625 L 15.671875 -22.078125 L 17.75 -22.078125 L 17.75 0 L 15.671875 0 L 15.671875 -3.640625 C 15.171875 -2.503906 14.351562 -1.570312 13.21875 -0.84375 C 12.082031 -0.125 10.75 0.234375 9.21875 0.234375 C 7.726562 0.234375 6.390625 -0.109375 5.203125 -0.796875 C 4.023438 -1.492188 3.101562 -2.476562 2.4375 -3.75 C 1.769531 -5.03125 1.4375 -6.503906 1.4375 -8.171875 Z M 15.671875 -8.140625 C 15.671875 -9.453125 15.398438 -10.601562 14.859375 -11.59375 C 14.328125 -12.59375 13.597656 -13.363281 12.671875 -13.90625 C 11.742188 -14.445312 10.722656 -14.71875 9.609375 -14.71875 C 8.453125 -14.71875 7.414062 -14.457031 6.5 -13.9375 C 5.59375 -13.414062 4.875 -12.660156 4.34375 -11.671875 C 3.8125 -10.691406 3.546875 -9.523438 3.546875 -8.171875 C 3.546875 -6.835938 3.8125 -5.664062 4.34375 -4.65625 C 4.875 -3.65625 5.59375 -2.890625 6.5 -2.359375 C 7.414062 -1.835938 8.453125 -1.578125 9.609375 -1.578125 C 10.722656 -1.578125 11.742188 -1.84375 12.671875 -2.375 C 13.597656 -2.914062 14.328125 -3.679688 14.859375 -4.671875 C 15.398438 -5.671875 15.671875 -6.828125 15.671875 -8.140625 Z M 15.671875 -8.140625 "/></g></g></g><g fill="#ffffff" fill-opacity="1"><g transform="translate(252.550835, 89.541927)"><g><path d="M 17.125 -8.984375 C 17.125 -8.265625 17.109375 -7.71875 17.078125 -7.34375 L 3.546875 -7.34375 C 3.609375 -6.101562 3.90625 -5.046875 4.4375 -4.171875 C 4.976562 -3.296875 5.6875 -2.632812 6.5625 -2.1875 C 7.4375 -1.738281 8.394531 -1.515625 9.4375 -1.515625 C 10.78125 -1.515625 11.914062 -1.84375 12.84375 -2.5 C 13.769531 -3.15625 14.382812 -4.039062 14.6875 -5.15625 L 16.890625 -5.15625 C 16.492188 -3.570312 15.644531 -2.273438 14.34375 -1.265625 C 13.039062 -0.265625 11.40625 0.234375 9.4375 0.234375 C 7.894531 0.234375 6.515625 -0.109375 5.296875 -0.796875 C 4.085938 -1.484375 3.140625 -2.457031 2.453125 -3.71875 C 1.773438 -4.976562 1.4375 -6.453125 1.4375 -8.140625 C 1.4375 -9.835938 1.773438 -11.320312 2.453125 -12.59375 C 3.128906 -13.863281 4.070312 -14.835938 5.28125 -15.515625 C 6.5 -16.191406 7.882812 -16.53125 9.4375 -16.53125 C 10.988281 -16.53125 12.34375 -16.191406 13.5 -15.515625 C 14.664062 -14.835938 15.5625 -13.925781 16.1875 -12.78125 C 16.8125 -11.644531 17.125 -10.378906 17.125 -8.984375 Z M 15.015625 -9.046875 C 15.035156 -10.253906 14.789062 -11.285156 14.28125 -12.140625 C 13.769531 -13.003906 13.078125 -13.65625 12.203125 -14.09375 C 11.328125 -14.53125 10.375 -14.75 9.34375 -14.75 C 7.789062 -14.75 6.46875 -14.25 5.375 -13.25 C 4.28125 -12.257812 3.671875 -10.859375 3.546875 -9.046875 Z M 15.015625 -9.046875 "/></g></g></g><g fill="#ffffff" fill-opacity="1"><g transform="translate(271.112859, 89.541927)"><g><path d="M 4.484375 -13.40625 C 4.929688 -14.414062 5.628906 -15.195312 6.578125 -15.75 C 7.523438 -16.3125 8.6875 -16.59375 10.0625 -16.59375 L 10.0625 -14.421875 L 9.484375 -14.421875 C 7.972656 -14.421875 6.757812 -14.007812 5.84375 -13.1875 C 4.9375 -12.375 4.484375 -11.015625 4.484375 -9.109375 L 4.484375 0 L 2.390625 0 L 2.390625 -16.296875 L 4.484375 -16.296875 Z M 4.484375 -13.40625 "/></g></g></g><g fill="#ffffff" fill-opacity="1"><g transform="translate(281.915835, 89.541927)"><g><path d="M 8 0.234375 C 6.125 0.234375 4.59375 -0.195312 3.40625 -1.0625 C 2.226562 -1.925781 1.570312 -3.101562 1.4375 -4.59375 L 3.578125 -4.59375 C 3.679688 -3.675781 4.113281 -2.929688 4.875 -2.359375 C 5.644531 -1.796875 6.675781 -1.515625 7.96875 -1.515625 C 9.101562 -1.515625 9.992188 -1.785156 10.640625 -2.328125 C 11.285156 -2.867188 11.609375 -3.535156 11.609375 -4.328125 C 11.609375 -4.878906 11.425781 -5.332031 11.0625 -5.6875 C 10.707031 -6.050781 10.253906 -6.335938 9.703125 -6.546875 C 9.160156 -6.753906 8.421875 -6.976562 7.484375 -7.21875 C 6.273438 -7.539062 5.289062 -7.859375 4.53125 -8.171875 C 3.78125 -8.492188 3.140625 -8.96875 2.609375 -9.59375 C 2.085938 -10.21875 1.828125 -11.054688 1.828125 -12.109375 C 1.828125 -12.910156 2.0625 -13.648438 2.53125 -14.328125 C 3.007812 -15.003906 3.6875 -15.539062 4.5625 -15.9375 C 5.4375 -16.332031 6.429688 -16.53125 7.546875 -16.53125 C 9.296875 -16.53125 10.707031 -16.085938 11.78125 -15.203125 C 12.863281 -14.316406 13.441406 -13.097656 13.515625 -11.546875 L 11.4375 -11.546875 C 11.375 -12.503906 11 -13.273438 10.3125 -13.859375 C 9.625 -14.453125 8.679688 -14.75 7.484375 -14.75 C 6.429688 -14.75 5.578125 -14.5 4.921875 -14 C 4.265625 -13.5 3.9375 -12.878906 3.9375 -12.140625 C 3.9375 -11.503906 4.128906 -10.984375 4.515625 -10.578125 C 4.910156 -10.171875 5.394531 -9.851562 5.96875 -9.625 C 6.539062 -9.394531 7.316406 -9.140625 8.296875 -8.859375 C 9.472656 -8.546875 10.40625 -8.238281 11.09375 -7.9375 C 11.789062 -7.632812 12.390625 -7.195312 12.890625 -6.625 C 13.390625 -6.050781 13.648438 -5.285156 13.671875 -4.328125 C 13.671875 -3.453125 13.429688 -2.671875 12.953125 -1.984375 C 12.472656 -1.296875 11.804688 -0.753906 10.953125 -0.359375 C 10.097656 0.0351562 9.113281 0.234375 8 0.234375 Z M 8 0.234375 "/></g></g></g><g fill="#ffffff" fill-opacity="1"><g transform="translate(297.135501, 89.541927)"><g><path d="M 2.75 0.15625 C 2.3125 0.15625 1.945312 0.00390625 1.65625 -0.296875 C 1.363281 -0.597656 1.21875 -0.96875 1.21875 -1.40625 C 1.21875 -1.84375 1.363281 -2.203125 1.65625 -2.484375 C 1.945312 -2.773438 2.3125 -2.921875 2.75 -2.921875 C 3.164062 -2.921875 3.515625 -2.773438 3.796875 -2.484375 C 4.085938 -2.203125 4.234375 -1.84375 4.234375 -1.40625 C 4.234375 -0.96875 4.085938 -0.597656 3.796875 -0.296875 C 3.515625 0.00390625 3.164062 0.15625 2.75 0.15625 Z M 2.75 0.15625 "/></g></g></g><g fill="#ffffff" fill-opacity="1"><g transform="translate(302.566838, 89.541927)"><g><path d="M 1.4375 -8.140625 C 1.4375 -9.835938 1.773438 -11.316406 2.453125 -12.578125 C 3.128906 -13.835938 4.0625 -14.8125 5.25 -15.5 C 6.445312 -16.1875 7.8125 -16.53125 9.34375 -16.53125 C 11.351562 -16.53125 13.007812 -16.03125 14.3125 -15.03125 C 15.613281 -14.039062 16.453125 -12.691406 16.828125 -10.984375 L 14.59375 -10.984375 C 14.3125 -12.160156 13.707031 -13.082031 12.78125 -13.75 C 11.863281 -14.414062 10.71875 -14.75 9.34375 -14.75 C 8.25 -14.75 7.265625 -14.5 6.390625 -14 C 5.515625 -13.5 4.820312 -12.753906 4.3125 -11.765625 C 3.800781 -10.785156 3.546875 -9.578125 3.546875 -8.140625 C 3.546875 -6.710938 3.800781 -5.5 4.3125 -4.5 C 4.820312 -3.507812 5.515625 -2.765625 6.390625 -2.265625 C 7.265625 -1.765625 8.25 -1.515625 9.34375 -1.515625 C 10.71875 -1.515625 11.863281 -1.847656 12.78125 -2.515625 C 13.707031 -3.179688 14.3125 -4.113281 14.59375 -5.3125 L 16.828125 -5.3125 C 16.453125 -3.644531 15.609375 -2.300781 14.296875 -1.28125 C 12.984375 -0.269531 11.332031 0.234375 9.34375 0.234375 C 7.8125 0.234375 6.445312 -0.109375 5.25 -0.796875 C 4.0625 -1.484375 3.128906 -2.457031 2.453125 -3.71875 C 1.773438 -4.976562 1.4375 -6.453125 1.4375 -8.140625 Z M 1.4375 -8.140625 "/></g></g></g><g fill="#ffffff" fill-opacity="1"><g transform="translate(320.860267, 89.541927)"><g><path d="M 9.515625 0.234375 C 7.984375 0.234375 6.601562 -0.109375 5.375 -0.796875 C 4.15625 -1.484375 3.191406 -2.457031 2.484375 -3.71875 C 1.785156 -4.976562 1.4375 -6.453125 1.4375 -8.140625 C 1.4375 -9.835938 1.789062 -11.316406 2.5 -12.578125 C 3.21875 -13.835938 4.191406 -14.8125 5.421875 -15.5 C 6.660156 -16.1875 8.046875 -16.53125 9.578125 -16.53125 C 11.109375 -16.53125 12.492188 -16.1875 13.734375 -15.5 C 14.984375 -14.8125 15.960938 -13.835938 16.671875 -12.578125 C 17.378906 -11.316406 17.734375 -9.835938 17.734375 -8.140625 C 17.734375 -6.472656 17.375 -5.003906 16.65625 -3.734375 C 15.9375 -2.460938 14.945312 -1.484375 13.6875 -0.796875 C 12.4375 -0.109375 11.046875 0.234375 9.515625 0.234375 Z M 9.515625 -1.578125 C 10.585938 -1.578125 11.582031 -1.820312 12.5 -2.3125 C 13.414062 -2.800781 14.15625 -3.535156 14.71875 -4.515625 C 15.289062 -5.503906 15.578125 -6.710938 15.578125 -8.140625 C 15.578125 -9.578125 15.296875 -10.785156 14.734375 -11.765625 C 14.179688 -12.753906 13.445312 -13.492188 12.53125 -13.984375 C 11.613281 -14.472656 10.617188 -14.71875 9.546875 -14.71875 C 8.472656 -14.71875 7.476562 -14.472656 6.5625 -13.984375 C 5.644531 -13.492188 4.910156 -12.753906 4.359375 -11.765625 C 3.816406 -10.785156 3.546875 -9.578125 3.546875 -8.140625 C 3.546875 -6.710938 3.816406 -5.503906 4.359375 -4.515625 C 4.910156 -3.535156 5.640625 -2.800781 6.546875 -2.3125 C 7.453125 -1.820312 8.441406 -1.578125 9.515625 -1.578125 Z M 9.515625 -1.578125 "/></g></g></g><g fill="#ffffff" fill-opacity="1"><g transform="translate(340.019155, 89.541927)"><g><path d="M 21.78125 -16.59375 C 23.695312 -16.59375 25.253906 -15.988281 26.453125 -14.78125 C 27.660156 -13.582031 28.265625 -11.835938 28.265625 -9.546875 L 28.265625 0 L 26.203125 0 L 26.203125 -9.3125 C 26.203125 -11.082031 25.773438 -12.429688 24.921875 -13.359375 C 24.066406 -14.296875 22.898438 -14.765625 21.421875 -14.765625 C 19.890625 -14.765625 18.664062 -14.257812 17.75 -13.25 C 16.84375 -12.238281 16.390625 -10.765625 16.390625 -8.828125 L 16.390625 0 L 14.328125 0 L 14.328125 -9.3125 C 14.328125 -11.082031 13.898438 -12.429688 13.046875 -13.359375 C 12.191406 -14.296875 11.015625 -14.765625 9.515625 -14.765625 C 7.984375 -14.765625 6.757812 -14.257812 5.84375 -13.25 C 4.9375 -12.238281 4.484375 -10.765625 4.484375 -8.828125 L 4.484375 0 L 2.390625 0 L 2.390625 -16.296875 L 4.484375 -16.296875 L 4.484375 -13.484375 C 4.992188 -14.503906 5.726562 -15.273438 6.6875 -15.796875 C 7.644531 -16.328125 8.707031 -16.59375 9.875 -16.59375 C 11.289062 -16.59375 12.53125 -16.253906 13.59375 -15.578125 C 14.65625 -14.898438 15.425781 -13.90625 15.90625 -12.59375 C 16.34375 -13.882812 17.09375 -14.875 18.15625 -15.5625 C 19.21875 -16.25 20.425781 -16.59375 21.78125 -16.59375 Z M 21.78125 -16.59375 "/></g></g></g></svg>