<svg xmlns="http://www.w3.org/2000/svg" xmlns:xlink="http://www.w3.org/1999/xlink" width="500" zoomAndPan="magnify" viewBox="0 0 375 374.999991" height="500" preserveAspectRatio="xMidYMid meet" version="1.0"><defs><g/><clipPath id="605c78f8d2"><path d="M 112.5 56.394531 L 262.5 56.394531 L 262.5 206.394531 L 112.5 206.394531 Z M 112.5 56.394531 " clip-rule="nonzero"/></clipPath></defs><g fill="#0097b2" fill-opacity="1"><g transform="translate(37.500002, 278.63235)"><g><path d="M 2.90625 -50.953125 L 13.984375 -50.953125 L 13.984375 -31.078125 L 57.140625 -31.078125 L 57.140625 -50.953125 L 69.296875 -50.953125 L 69.296875 0 L 57.140625 0 L 57.140625 -20.015625 L 13.984375 -20.015625 L 13.984375 0 L 2.90625 0 Z M 2.90625 -50.953125 "/></g></g></g><g fill="#0097b2" fill-opacity="1"><g transform="translate(109.714496, 278.63235)"><g><path d="M 19.359375 0 C 16.054688 0 13.164062 -0.664062 10.6875 -2 C 8.21875 -3.332031 6.300781 -5.140625 4.9375 -7.421875 C 3.582031 -9.703125 2.90625 -12.203125 2.90625 -14.921875 L 2.90625 -36.03125 C 2.90625 -38.800781 3.582031 -41.3125 4.9375 -43.5625 C 6.300781 -45.820312 8.21875 -47.617188 10.6875 -48.953125 C 13.164062 -50.285156 16.054688 -50.953125 19.359375 -50.953125 L 69.296875 -50.953125 L 69.296875 -39.890625 L 19.359375 -39.890625 C 18.191406 -39.890625 17.179688 -39.460938 16.328125 -38.609375 C 15.484375 -37.765625 15.0625 -36.710938 15.0625 -35.453125 L 15.0625 -31.078125 L 47.171875 -31.078125 L 47.171875 -20.015625 L 15.0625 -20.015625 L 15.0625 -15.5 C 15.0625 -14.238281 15.484375 -13.179688 16.328125 -12.328125 C 17.179688 -11.484375 18.191406 -11.0625 19.359375 -11.0625 L 69.296875 -11.0625 L 69.296875 0 Z M 19.359375 0 "/></g></g></g><g fill="#0097b2" fill-opacity="1"><g transform="translate(181.92899, 278.63235)"><g><path d="M 5.53125 -35.453125 C 5.820312 -38.410156 6.625 -41.050781 7.9375 -43.375 C 9.25 -45.707031 11.082031 -47.550781 13.4375 -48.90625 C 15.789062 -50.269531 18.613281 -50.953125 21.90625 -50.953125 L 48.84375 -50.953125 C 52.144531 -50.953125 54.972656 -50.269531 57.328125 -48.90625 C 59.679688 -47.550781 61.523438 -45.707031 62.859375 -43.375 C 64.191406 -41.050781 64.976562 -38.410156 65.21875 -35.453125 L 68.578125 0 L 56.421875 0 L 54.53125 -20.015625 L 16.234375 -20.015625 L 14.34375 0 L 2.1875 0 Z M 17.25 -31.078125 L 53.5 -31.078125 L 53.0625 -35.453125 C 52.96875 -36.710938 52.53125 -37.765625 51.75 -38.609375 C 50.976562 -39.460938 50.007812 -39.890625 48.84375 -39.890625 L 21.90625 -39.890625 C 20.75 -39.890625 19.78125 -39.460938 19 -38.609375 C 18.21875 -37.765625 17.78125 -36.710938 17.6875 -35.453125 Z M 17.25 -31.078125 "/></g></g></g><g fill="#0097b2" fill-opacity="1"><g transform="translate(252.687549, 278.63235)"><g><path d="M 19.359375 0 C 16.054688 0 13.164062 -0.664062 10.6875 -2 C 8.21875 -3.332031 6.300781 -5.140625 4.9375 -7.421875 C 3.582031 -9.703125 2.90625 -12.203125 2.90625 -14.921875 L 2.90625 -50.953125 L 15.0625 -50.953125 L 15.0625 -15.5 C 15.0625 -14.238281 15.484375 -13.179688 16.328125 -12.328125 C 17.179688 -11.484375 18.191406 -11.0625 19.359375 -11.0625 L 69.296875 -11.0625 L 69.296875 0 Z M 19.359375 0 "/></g></g></g><g fill="#0097b2" fill-opacity="1"><g transform="translate(324.909361, 278.63235)"><g/></g></g><g clip-path="url(#605c78f8d2)"><path fill="#8acaef" d="M 187.492188 206.394531 C 174.765625 206.394531 164.414062 196.042969 164.414062 183.316406 L 164.414062 166.011719 C 164.414062 153.285156 174.765625 142.933594 187.492188 142.933594 L 199.027344 142.933594 L 199.027344 119.855469 L 135.578125 119.855469 C 129.214844 119.855469 124.046875 125.023438 124.046875 131.386719 C 124.046875 137.75 129.214844 142.917969 135.578125 142.917969 L 152.882812 142.917969 C 156.070312 142.917969 158.65625 145.503906 158.65625 148.691406 C 158.65625 151.878906 156.070312 154.464844 152.882812 154.464844 L 135.578125 154.464844 C 122.851562 154.464844 112.5 144.113281 112.5 131.386719 C 112.5 118.660156 122.851562 108.308594 135.578125 108.308594 L 199.039062 108.308594 L 199.039062 79.472656 C 199.039062 73.109375 193.871094 67.9375 187.507812 67.9375 C 181.144531 67.9375 175.972656 73.109375 175.972656 79.472656 L 175.972656 96.777344 C 175.972656 99.964844 173.390625 102.550781 170.203125 102.550781 C 167.011719 102.550781 164.429688 99.964844 164.429688 96.777344 L 164.429688 79.472656 C 164.429688 66.746094 174.78125 56.394531 187.492188 56.394531 C 200.21875 56.394531 210.570312 66.746094 210.570312 79.472656 L 210.570312 108.320312 L 239.421875 108.320312 C 252.148438 108.320312 262.5 118.671875 262.5 131.398438 C 262.5 144.125 252.148438 154.476562 239.421875 154.476562 L 210.570312 154.476562 L 210.570312 183.328125 C 210.570312 196.042969 200.21875 206.394531 187.492188 206.394531 Z M 187.492188 154.464844 C 181.128906 154.464844 175.960938 159.632812 175.960938 165.996094 L 175.960938 183.300781 C 175.960938 189.664062 181.128906 194.835938 187.492188 194.835938 C 193.855469 194.835938 199.027344 189.664062 199.027344 183.300781 L 199.027344 154.464844 Z M 210.570312 142.933594 L 239.421875 142.933594 C 245.785156 142.933594 250.953125 137.761719 250.953125 131.398438 C 250.953125 125.035156 245.785156 119.867188 239.421875 119.867188 L 210.570312 119.867188 Z M 210.570312 142.933594 " fill-opacity="1" fill-rule="nonzero"/></g></svg>